<svg width="50" height="50" viewBox="0 0 50 50" fill="none" xmlns="http://www.w3.org/2000/svg">
<circle cx="25" cy="25" r="25" fill="#FBFBFB"/>
<circle cx="25" cy="25" r="24.5" stroke="#EAEAEA"/>
<path fill-rule="evenodd" clip-rule="evenodd" d="M15.75 25C15.75 31.937 18.063 34.25 25 34.25C31.937 34.25 34.25 31.937 34.25 25C34.25 18.063 31.937 15.75 25 15.75C18.063 15.75 15.75 18.063 15.75 25Z" stroke="#46A358" stroke-width="1.5" stroke-linecap="round" stroke-linejoin="round"/>
<path fill-rule="evenodd" clip-rule="evenodd" d="M23.5987 21.7842C23.5987 22.7572 22.8107 23.5452 21.8377 23.5452C20.8657 23.5452 20.0767 22.7572 20.0767 21.7842C20.0767 20.8112 20.8657 20.0232 21.8377 20.0232C22.8107 20.0232 23.5987 20.8112 23.5987 21.7842Z" stroke="#46A358" stroke-width="1.5" stroke-linecap="round" stroke-linejoin="round"/>
<path d="M34.1203 27.6664C33.2393 26.7604 31.9933 24.9294 29.7043 24.9294C27.4153 24.9294 27.3653 28.9674 25.0293 28.9674C22.6923 28.9674 21.7513 27.5964 20.2283 28.3124C18.7063 29.0274 17.4663 31.8734 17.4663 31.8734" stroke="#46A358" stroke-width="1.5" stroke-linecap="round" stroke-linejoin="round"/>
</svg>
