<svg width="143" height="20" viewBox="0 0 143 20" fill="none" xmlns="http://www.w3.org/2000/svg">
<path d="M31.5102 15H36.8142V13.765H32.8882V6.42H31.5102V15ZM37.6558 11.802C37.6168 13.609 39.1898 15.182 41.0228 15.143C42.8818 15.182 44.4548 13.609 44.4158 11.802C44.4548 9.995 42.8818 8.435 41.0228 8.474C39.1898 8.448 37.6168 9.969 37.6558 11.802ZM43.0118 11.815C43.0118 12.972 42.1538 13.882 41.0228 13.882C39.9048 13.882 39.0468 12.998 39.0468 11.815C39.0468 10.632 39.9048 9.722 41.0358 9.722C42.1408 9.722 43.0118 10.632 43.0118 11.815ZM50.9857 8.617V9.527C50.5177 8.864 49.6987 8.474 48.7237 8.474C46.9557 8.474 45.6167 9.813 45.6167 11.672C45.6167 13.531 46.9427 14.87 48.7237 14.87C49.6077 14.87 50.4007 14.545 50.8817 13.96V14.415C50.8817 15.611 50.1277 16.235 48.9707 16.235C48.0997 16.235 47.4497 15.897 46.7347 15.325L45.9807 16.274C46.7477 16.989 47.7877 17.483 49.0487 17.483C50.9857 17.483 52.2467 16.352 52.2467 14.337V8.617H50.9857ZM50.8947 11.659C50.8947 12.309 50.6997 12.803 50.3227 13.154C49.9457 13.505 49.5037 13.674 48.9707 13.674C48.4117 13.674 47.9567 13.492 47.5797 13.128C47.2027 12.751 47.0207 12.27 47.0207 11.672C47.0207 11.087 47.2027 10.606 47.5797 10.242C47.9567 9.878 48.4117 9.696 48.9707 9.696C50.0237 9.696 50.8947 10.359 50.8947 11.659ZM54.2199 15H55.5849V8.617H54.2199V15ZM53.9729 6.238C53.9729 6.745 54.3889 7.135 54.9089 7.135C55.4159 7.135 55.8319 6.745 55.8319 6.238C55.8319 5.731 55.4159 5.328 54.9089 5.328C54.3889 5.328 53.9729 5.731 53.9729 6.238ZM63.1358 11.009C63.1358 9.488 62.2388 8.474 60.7438 8.474C59.9508 8.474 59.3138 8.734 58.8328 9.241V8.617H57.5588V15H58.9238V11.191C58.9238 10.32 59.5348 9.709 60.3798 9.709C61.2118 9.709 61.7708 10.307 61.7708 11.191V15H63.1358V11.009ZM76.6973 8.617L75.0463 12.738L73.0833 8.474H72.6153L70.6783 12.79L69.0013 8.617H67.5453L70.3793 15.143H70.8473L72.8493 10.892L74.8513 15.143H75.3193L78.1533 8.617H76.6973ZM79.382 15H80.747V8.617H79.382V15ZM79.135 6.238C79.135 6.745 79.551 7.135 80.071 7.135C80.578 7.135 80.994 6.745 80.994 6.238C80.994 5.731 80.578 5.328 80.071 5.328C79.551 5.328 79.135 5.731 79.135 6.238ZM86.5169 13.843C86.1399 13.882 85.8669 13.908 85.6719 13.908C84.8399 13.908 84.4109 13.622 84.4109 12.803V9.8H86.3089V8.617H84.4109V6.94H83.0329V8.617H81.9929V9.8H83.0329V12.92C83.0329 14.415 83.9169 15.143 85.3859 15.143C85.7109 15.143 86.0879 15.091 86.5169 15V13.843ZM93.4776 11.009C93.4776 9.501 92.5676 8.474 91.1116 8.474C90.3446 8.474 89.6946 8.747 89.2656 9.254V5.25H87.9006V15H89.2656V11.204C89.2656 10.333 89.8766 9.722 90.7216 9.722C91.5666 9.722 92.1126 10.32 92.1126 11.204V15H93.4776V11.009ZM98.5927 10.71C98.5537 13.167 100.608 15.182 103.117 15.143C104.846 15.143 106.354 14.246 107.121 12.881V10.463H103.104V11.685H105.743V12.608C105.21 13.427 104.313 13.908 103.182 13.908C101.336 13.908 100.023 12.53 100.023 10.697C100.023 8.89 101.297 7.538 103.104 7.538C104.17 7.538 105.028 7.993 105.665 8.89L106.666 8.071C105.847 6.927 104.612 6.277 103.117 6.277C100.634 6.238 98.5407 8.253 98.5927 10.71ZM108.318 11.802C108.279 13.609 109.852 15.182 111.685 15.143C113.544 15.182 115.117 13.609 115.078 11.802C115.117 9.995 113.544 8.435 111.685 8.474C109.852 8.448 108.279 9.969 108.318 11.802ZM113.674 11.815C113.674 12.972 112.816 13.882 111.685 13.882C110.567 13.882 109.709 12.998 109.709 11.815C109.709 10.632 110.567 9.722 111.698 9.722C112.803 9.722 113.674 10.632 113.674 11.815ZM116.24 11.802C116.201 13.609 117.774 15.182 119.607 15.143C121.466 15.182 123.039 13.609 123 11.802C123.039 9.995 121.466 8.435 119.607 8.474C117.774 8.448 116.201 9.969 116.24 11.802ZM121.596 11.815C121.596 12.972 120.738 13.882 119.607 13.882C118.489 13.882 117.631 12.998 117.631 11.815C117.631 10.632 118.489 9.722 119.62 9.722C120.725 9.722 121.596 10.632 121.596 11.815ZM129.57 8.617V9.527C129.102 8.864 128.283 8.474 127.308 8.474C125.54 8.474 124.201 9.813 124.201 11.672C124.201 13.531 125.527 14.87 127.308 14.87C128.192 14.87 128.985 14.545 129.466 13.96V14.415C129.466 15.611 128.712 16.235 127.555 16.235C126.684 16.235 126.034 15.897 125.319 15.325L124.565 16.274C125.332 16.989 126.372 17.483 127.633 17.483C129.57 17.483 130.831 16.352 130.831 14.337V8.617H129.57ZM129.479 11.659C129.479 12.309 129.284 12.803 128.907 13.154C128.53 13.505 128.088 13.674 127.555 13.674C126.996 13.674 126.541 13.492 126.164 13.128C125.787 12.751 125.605 12.27 125.605 11.672C125.605 11.087 125.787 10.606 126.164 10.242C126.541 9.878 126.996 9.696 127.555 9.696C128.608 9.696 129.479 10.359 129.479 11.659ZM132.804 15H134.169V5.25H132.804V15ZM141.889 12.257C141.954 11.958 141.993 11.672 141.993 11.399C141.993 9.735 140.732 8.474 139.042 8.474C137.235 8.435 135.701 9.982 135.74 11.815C135.74 13.7 137.222 15.143 139.172 15.143C140.147 15.143 140.992 14.805 141.72 14.116L141.07 13.18C140.498 13.687 139.874 13.934 139.211 13.934C138.119 13.934 137.3 13.297 137.131 12.257H141.889ZM137.157 11.191C137.365 10.242 138.093 9.631 138.99 9.631C139.887 9.631 140.615 10.216 140.628 11.191H137.157Z" fill="#727272"/>
<path d="M16.4336 17.6055C14.6992 19.0703 12.4493 20 10 20C6.35547 20 3.15621 17.9922 1.42188 15.0625L2.07117 12.0695L4.94922 11.5352C5.61719 13.6914 7.63278 15.2734 10 15.2734C11.1484 15.2734 12.2148 14.9102 13.0938 14.2656L15.8594 14.6875L16.4336 17.6055Z" fill="#59C36A"/>
<path d="M16.4336 17.6055L15.8594 14.6875L13.0937 14.2656C12.2148 14.9102 11.1484 15.2734 10 15.2734V20C12.4493 20 14.6992 19.0703 16.4336 17.6055Z" fill="#00A66C"/>
<path d="M4.72656 10C4.72656 10.539 4.8086 11.0546 4.94922 11.5352L1.42188 15.0625C0.542969 13.5859 0 11.8515 0 10C0 8.1484 0.542969 6.41406 1.42188 4.9375L4.25285 5.42473L4.94922 8.46484C4.8086 8.94527 4.72656 9.4609 4.72656 10Z" fill="#FFDA2D"/>
<path d="M20 10C20 13.0468 18.5899 15.7773 16.4336 17.6055L13.0938 14.2656C13.7734 13.7734 14.3477 13.1171 14.7227 12.3437H10C9.67184 12.3437 9.41406 12.0859 9.41406 11.7578V8.24219C9.41406 7.91402 9.67184 7.65625 10 7.65625H19.25C19.5312 7.65625 19.7773 7.85543 19.8242 8.13668C19.9414 8.74609 20 9.37887 20 10Z" fill="#4086F4"/>
<path d="M14.7227 12.3437C14.3477 13.1171 13.7734 13.7734 13.0938 14.2656L16.4336 17.6055C18.5899 15.7773 20 13.0469 20 10C20 9.37887 19.9414 8.74609 19.8242 8.13668C19.7773 7.85543 19.5312 7.65625 19.25 7.65625H10V12.3437H14.7227Z" fill="#4175DF"/>
<path d="M16.5977 2.79293C16.6094 2.95699 16.5391 3.10937 16.4336 3.22652L13.9258 5.72262C13.7266 5.93355 13.3985 5.95699 13.1641 5.78121C12.2382 5.08984 11.1484 4.72656 10 4.72656C7.63278 4.72656 5.61719 6.30855 4.94922 8.46484L1.42188 4.9375C3.15621 2.00781 6.35547 0 10 0C12.332 0 14.6055 0.859375 16.3867 2.35934C16.5156 2.46484 16.5859 2.62887 16.5977 2.79293Z" fill="#FF641A"/>
<path d="M13.1641 5.78121C13.3984 5.95703 13.7265 5.93355 13.9257 5.72262L16.4336 3.22652C16.5391 3.10938 16.6094 2.95703 16.5976 2.79293C16.5859 2.62883 16.5156 2.46484 16.3867 2.35934C14.6055 0.859375 12.332 0 10 0V4.72656C11.1484 4.72656 12.2382 5.08984 13.1641 5.78121Z" fill="#F03800"/>
</svg>
