<svg width="18" height="18" viewBox="0 0 18 18" fill="none" xmlns="http://www.w3.org/2000/svg">
<path d="M4.815 13.2974C3.1425 12.2024 2.0625 10.5524 2.0625 9.10485C2.0625 6.64485 5.1675 3.62985 9 3.62985C10.5675 3.62985 12.0225 4.13235 13.1925 4.91235" stroke="#A5A5A5" stroke-width="1.5" stroke-linecap="round" stroke-linejoin="round"/>
<path d="M14.8873 6.45765C15.5556 7.30515 15.9448 8.24265 15.9448 9.10515C15.9448 11.5651 12.8323 14.5801 8.99984 14.5801C8.31734 14.5801 7.65059 14.4826 7.02734 14.3101" stroke="#A5A5A5" stroke-width="1.5" stroke-linecap="round" stroke-linejoin="round"/>
<path d="M7.32462 10.7752C6.87837 10.3335 6.62862 9.73124 6.63087 9.10349C6.62787 7.79475 7.68687 6.73125 8.99637 6.729C9.62637 6.7275 10.2309 6.97725 10.6764 7.42275" stroke="#A5A5A5" stroke-width="1.5" stroke-linecap="round" stroke-linejoin="round"/>
<path d="M11.3324 9.52432C11.1569 10.4933 10.3987 11.2531 9.42969 11.4308" stroke="#A5A5A5" stroke-width="1.5" stroke-linecap="round" stroke-linejoin="round"/>
<path d="M14.9184 3.18742L3.08789 15.0179" stroke="#A5A5A5" stroke-width="1.5" stroke-linecap="round" stroke-linejoin="round"/>
</svg>
