<svg width="16" height="18" viewBox="0 0 16 18" fill="none" xmlns="http://www.w3.org/2000/svg">
<path d="M5.61199 16.3111V13.763C5.61199 13.1125 6.14315 12.5852 6.79837 12.5852H9.19352C9.50816 12.5852 9.80993 12.7093 10.0324 12.9302C10.2549 13.1511 10.3799 13.4506 10.3799 13.763V16.3111C10.3779 16.5815 10.4847 16.8416 10.6767 17.0335C10.8686 17.2254 11.1297 17.3333 11.4021 17.3333H13.0362C13.7994 17.3353 14.532 17.0357 15.0723 16.5007C15.6127 15.9656 15.9163 15.2391 15.9163 14.4815V7.22237C15.9163 6.61037 15.6431 6.02986 15.1702 5.63721L9.61136 1.22988C8.64439 0.457125 7.25893 0.482075 6.32083 1.28914L0.888851 5.63721C0.393625 6.01828 0.0976347 6.60052 0.0830078 7.22237V14.4741C0.0830078 16.0532 1.37249 17.3333 2.96315 17.3333H4.55992C5.1257 17.3333 5.58551 16.8802 5.5896 16.3185L5.61199 16.3111Z" fill="#46A358"/>
</svg>
