<svg width="78" height="20" viewBox="0 0 78 20" fill="none" xmlns="http://www.w3.org/2000/svg">
<path d="M28.14 14H34.5V12.17H30.165V4.1H28.14V14ZM35.3926 10.28C35.3476 12.395 37.1776 14.21 39.3526 14.165C41.5276 14.21 43.4026 12.395 43.3576 10.28C43.4026 8.165 41.5426 6.38 39.3676 6.41C37.1926 6.365 35.3476 8.165 35.3926 10.28ZM41.2876 10.295C41.2876 11.45 40.4626 12.305 39.3676 12.305C38.2426 12.305 37.4476 11.45 37.4476 10.295C37.4476 9.11 38.2426 8.255 39.3676 8.255C40.4626 8.255 41.2876 9.14 41.2876 10.295ZM50.5336 6.575V7.505C50.0086 6.8 49.1686 6.41 48.1036 6.41C46.0786 6.41 44.5486 7.88 44.5486 10.085C44.5486 12.26 46.0486 13.775 48.1036 13.775C49.0486 13.775 49.8286 13.475 50.3686 12.89V13.295C50.3686 14.45 49.5886 15.05 48.3886 15.05C47.4886 15.05 46.7986 14.705 45.9736 14.09L44.9086 15.5C45.9436 16.415 47.1586 16.88 48.5536 16.88C50.8786 16.88 52.3936 15.59 52.3936 13.175V6.575H50.5336ZM50.3986 10.055C50.3986 11.33 49.5436 12.065 48.5236 12.065C47.4436 12.065 46.6036 11.27 46.6036 10.07C46.6036 8.87 47.4286 8.135 48.5236 8.135C49.5586 8.135 50.3986 8.78 50.3986 10.055ZM54.3265 10.73C54.3265 12.8 55.7815 14.18 57.7615 14.18C59.6965 14.18 61.1665 12.8 61.1665 10.73V6.575H59.1415V10.895C59.1415 11.75 58.5415 12.32 57.7615 12.32C56.9365 12.32 56.3515 11.75 56.3515 10.895V6.575H54.3265V10.73ZM62.6827 10.28C62.6377 12.395 64.4677 14.21 66.6427 14.165C68.8177 14.21 70.6927 12.395 70.6477 10.28C70.6927 8.165 68.8327 6.38 66.6577 6.41C64.4827 6.365 62.6377 8.165 62.6827 10.28ZM68.5777 10.295C68.5777 11.45 67.7527 12.305 66.6577 12.305C65.5327 12.305 64.7377 11.45 64.7377 10.295C64.7377 9.11 65.5327 8.255 66.6577 8.255C67.7527 8.255 68.5777 9.14 68.5777 10.295ZM76.9986 12.305C76.4736 12.35 76.1586 12.365 76.0386 12.365C75.0786 12.365 74.6586 12.05 74.6586 11.21V8.285H76.7586V6.575H74.6586V4.7H72.6336V6.575H71.4636V8.285H72.6336V11.39C72.6336 13.25 73.7286 14.18 75.6036 14.18C76.0536 14.18 76.5186 14.12 76.9986 14V12.305Z" fill="#46A358"/>
<path d="M18.1592 10.1005H8.125" stroke="#46A358" stroke-width="1.5" stroke-linecap="round" stroke-linejoin="round"/>
<path d="M15.7202 7.67041L18.1602 10.1004L15.7202 12.5304" stroke="#46A358" stroke-width="1.5" stroke-linecap="round" stroke-linejoin="round"/>
<path d="M13.6333 6.35817C13.3583 3.37484 12.2416 2.2915 7.79997 2.2915C1.88247 2.2915 1.88247 4.2165 1.88247 9.99984C1.88247 15.7832 1.88247 17.7082 7.79997 17.7082C12.2416 17.7082 13.3583 16.6248 13.6333 13.6415" stroke="#46A358" stroke-width="1.5" stroke-linecap="round" stroke-linejoin="round"/>
</svg>
