<svg width="16" height="12" viewBox="0 0 16 12" fill="none" xmlns="http://www.w3.org/2000/svg">
<path fill-rule="evenodd" clip-rule="evenodd" d="M8 1.09091C6.30168 1.09091 3.98846 1.2365 2.51951 1.34356C2.03167 1.37911 1.65385 1.76529 1.65385 2.23696V2.76996L7.53304 5.85802C7.82344 6.01056 8.17656 6.01056 8.46697 5.85802L14.3462 2.76996V2.23696C14.3462 1.76529 13.9683 1.37911 13.4805 1.34356C12.0115 1.2365 9.69833 1.09091 8 1.09091ZM14.3462 4.01792L9.02732 6.81165C8.38843 7.14723 7.61157 7.14723 6.97268 6.81165L1.65385 4.01792V9.76304C1.65385 10.2347 2.03167 10.6209 2.51951 10.6564C3.98846 10.7635 6.30168 10.9091 8 10.9091C9.69833 10.9091 12.0115 10.7635 13.4805 10.6564C13.9683 10.6209 14.3462 10.2347 14.3462 9.76304V4.01792ZM2.43083 0.255877C3.90066 0.148756 6.25301 0 8 0C9.74699 0 12.0993 0.148756 13.5692 0.255877C14.6676 0.335933 15.5 1.20441 15.5 2.23696V9.76304C15.5 10.7956 14.6676 11.6641 13.5692 11.7441C12.0993 11.8512 9.747 12 8 12C6.25301 12 3.90066 11.8512 2.43083 11.7441C1.33237 11.6641 0.5 10.7956 0.5 9.76304V2.23696C0.5 1.20441 1.33237 0.335933 2.43083 0.255877Z" fill="#3D3D3D"/>
</svg>
