<svg width="29" height="18" viewBox="0 0 29 18" fill="none" xmlns="http://www.w3.org/2000/svg">
<g clip-path="url(#clip0_16_918)">
<path fill-rule="evenodd" clip-rule="evenodd" d="M20.3043 17.3575L20.7523 17.3451L21.1956 17.3126L21.628 17.2568L22.059 17.1808L22.4775 17.0847L22.8898 16.9669L23.2943 16.8305L23.6896 16.6755L24.0756 16.4988L24.4507 16.3097L24.8134 16.0989L25.1668 15.8726L25.5078 15.6292L25.8349 15.3719L26.1511 15.1006L26.4534 14.8108L26.7432 14.5085L27.0145 14.1923L27.2718 13.8653L27.5151 13.5242L27.7415 13.1708L27.9523 12.8081L28.1414 12.433L28.3181 12.047L28.4731 11.6518L28.6095 11.2472L28.7273 10.8349L28.8234 10.4164L28.8994 9.98546L28.9552 9.553L28.9877 9.10968L29.0001 8.66171L28.9877 8.21685L28.9552 7.77818L28.8994 7.34572L28.8234 6.921L28.7273 6.50249L28.6095 6.09172L28.4731 5.68871L28.3181 5.29654L28.1414 4.91213L27.9523 4.53701L27.7415 4.1774L27.5151 3.82399L27.2718 3.48298L27.0145 3.15901L26.7432 2.8428L26.4534 2.54054L26.1511 2.25378L25.8349 1.98252L25.5078 1.72366L25.1668 1.48185L24.8134 1.25555L24.4507 1.04784L24.0756 0.857181L23.6896 0.682025L23.2943 0.527019L22.8898 0.389064L22.4775 0.27281L22.059 0.175156L21.628 0.0992036L21.1956 0.0434016L20.7523 0.0124004L20.3043 0L19.8594 0.0124004L19.4177 0.0434016L18.9852 0.0992036L18.5574 0.175156L18.1389 0.27281L17.7265 0.389064L17.3251 0.527019L16.9298 0.682025L16.5454 0.857181L16.1749 1.04784L15.8107 1.25555L15.4604 1.48185L15.1209 1.72366L14.7923 1.98252L14.4792 2.25378L14.1785 2.54054L13.8902 2.8428L13.6189 3.15901L13.3616 3.48298L13.1213 3.82399L12.895 4.1774L12.6873 4.53701L12.4951 4.91213L12.3215 5.29654L12.1665 5.68871L12.0316 6.09172L11.9154 6.50249L11.8177 6.921L11.7418 7.34572L11.686 7.77818L11.655 8.21685L11.6426 8.66171L11.655 9.10968L11.686 9.553L11.7418 9.98546L11.8177 10.4164L11.9154 10.8349L12.0316 11.2472L12.1665 11.6518L12.3215 12.047L12.4951 12.433L12.6873 12.8081L12.895 13.1708L13.1213 13.5242L13.3616 13.8653L13.6189 14.1923L13.8902 14.5085L14.1785 14.8108L14.4792 15.1006L14.7923 15.3719L15.1209 15.6292L15.4604 15.8726L15.8107 16.0989L16.1749 16.3097L16.5454 16.4988L16.9298 16.6755L17.3251 16.8305L17.7265 16.9669L18.1389 17.0847L18.5574 17.1808L18.9852 17.2568L19.4177 17.3126L19.8594 17.3451L20.3043 17.3575Z" fill="#FCB331"/>
<path fill-rule="evenodd" clip-rule="evenodd" d="M8.69426 17.3575L9.13913 17.3451L9.5809 17.3126L10.0149 17.2568L10.4427 17.1808L10.8612 17.0847L11.2736 16.9669L11.675 16.8305L12.0703 16.6755L12.4531 16.4988L12.8252 16.3097L13.1879 16.0989L13.5397 15.8726L13.8792 15.6292L14.2063 15.3719L14.5209 15.1006L14.8216 14.8108L15.1084 14.5085L15.3812 14.1923L15.6385 13.8653L15.8788 13.5242L16.1035 13.1708L16.3112 12.8081L16.505 12.433L16.6771 12.047L16.8336 11.6518L16.9669 11.2472L17.0847 10.8349L17.1808 10.4164L17.2568 9.98546L17.3126 9.553L17.3451 9.10968L17.3575 8.66171L17.3451 8.21685L17.3126 7.77818L17.2568 7.34572L17.1808 6.921L17.0847 6.50249L16.9669 6.09172L16.8336 5.68871L16.6771 5.29654L16.505 4.91213L16.3112 4.53701L16.1035 4.1774L15.8788 3.82399L15.6385 3.48298L15.3812 3.15901L15.1084 2.8428L14.8216 2.54054L14.5209 2.25378L14.2063 1.98252L13.8792 1.72366L13.5397 1.48185L13.1879 1.25555L12.8252 1.04784L12.4531 0.857181L12.0703 0.682025L11.675 0.527019L11.2736 0.389064L10.8612 0.27281L10.4427 0.175156L10.0149 0.0992036L9.5809 0.0434016L9.13913 0.0124004L8.69426 0L8.2463 0.0124004L7.80453 0.0434016L7.37207 0.0992036L6.94115 0.175156L6.52264 0.27281L6.11032 0.389064L5.70576 0.527019L5.31049 0.682025L4.92453 0.857181L4.54941 1.04784L4.1867 1.25555L3.83174 1.48185L3.49228 1.72366L3.16521 1.98252L2.849 2.25378L2.54674 2.54054L2.25688 2.8428L1.98407 3.15901L1.72676 3.48298L1.48495 3.82399L1.25865 4.1774L1.04784 4.53701L0.857181 4.91213L0.682025 5.29654L0.527019 5.68871L0.389064 6.09172L0.27281 6.50249L0.175156 6.921L0.0992036 7.34572L0.0434016 7.77818L0.0124004 8.21685L0 8.66171L0.0124004 9.10968L0.0434016 9.553L0.0992036 9.98546L0.175156 10.4164L0.27281 10.8349L0.389064 11.2472L0.527019 11.6518L0.682025 12.047L0.857181 12.433L1.04784 12.8081L1.25865 13.1708L1.48495 13.5242L1.72676 13.8653L1.98407 14.1923L2.25688 14.5085L2.54674 14.8108L2.849 15.1006L3.16521 15.3719L3.49228 15.6292L3.83174 15.8726L4.1867 16.0989L4.54941 16.3097L4.92453 16.4988L5.31049 16.6755L5.70576 16.8305L6.11032 16.9669L6.52264 17.0847L6.94115 17.1808L7.37207 17.2568L7.80453 17.3126L8.2463 17.3451L8.69426 17.3575Z" fill="#ED1B2E"/>
<path fill-rule="evenodd" clip-rule="evenodd" d="M13.4844 3.32797H18.0958V2.85675H13.8827L13.4844 3.32797Z" fill="#FCB331"/>
<path fill-rule="evenodd" clip-rule="evenodd" d="M12.793 4.37735H18.0957V3.90459H13.072L12.793 4.37735Z" fill="#FCB331"/>
<path fill-rule="evenodd" clip-rule="evenodd" d="M12.2783 5.4221H18.0957V4.95088H12.4829L12.2783 5.4221Z" fill="#FCB331"/>
<path fill-rule="evenodd" clip-rule="evenodd" d="M11.9229 6.46994H18.0952V5.99872H12.0701L11.9229 6.46994Z" fill="#FCB331"/>
<path fill-rule="evenodd" clip-rule="evenodd" d="M12.1297 11.534H18.1098V11.0628H11.9824L12.1297 11.534Z" fill="#FCB331"/>
<path fill-rule="evenodd" clip-rule="evenodd" d="M12.5717 12.5818H18.11V12.1106H12.3516L12.5717 12.5818Z" fill="#FCB331"/>
<path fill-rule="evenodd" clip-rule="evenodd" d="M13.1906 13.6281H18.1089V13.1553H12.8945L13.1906 13.6281Z" fill="#FCB331"/>
<path fill-rule="evenodd" clip-rule="evenodd" d="M14.0467 14.6759H18.1094V14.2016H13.6328L14.0467 14.6759Z" fill="#FCB331"/>
<path fill-rule="evenodd" clip-rule="evenodd" d="M11.7148 7.51467H18.0949V7.04346H11.8063L11.7148 7.51467Z" fill="#FCB331"/>
<path fill-rule="evenodd" clip-rule="evenodd" d="M15.6025 10.4892H18.0361V10.018H15.6909L15.6025 10.4892Z" fill="#FCB331"/>
<path fill-rule="evenodd" clip-rule="evenodd" d="M15.7969 9.44449H18.0367V8.97018H15.8852L15.7969 9.44449Z" fill="#FCB331"/>
<path fill-rule="evenodd" clip-rule="evenodd" d="M11.5537 8.97018H12.1861V9.44449H11.5832L11.5537 8.97018Z" fill="#FCB331"/>
<path fill-rule="evenodd" clip-rule="evenodd" d="M10.3744 8.3982L10.3341 8.39665L10.2923 8.39045L10.2551 8.38425L10.2163 8.37805L10.1822 8.37185L10.1434 8.3672L10.1047 8.361L10.0644 8.3548L10.0241 8.3486L9.97604 8.3455L9.92334 8.34395L9.86909 8.34085H9.80708L9.73888 8.34395L9.66293 8.3486L9.57923 8.3548L9.52032 8.3641L9.46452 8.37185L9.41492 8.39045L9.36997 8.4075L9.32967 8.42765L9.29092 8.45091L9.26301 8.48036L9.23666 8.50671L9.21806 8.53926L9.20411 8.57181L9.19791 8.60746V8.64156L9.20721 8.68031L9.21806 8.71751L9.24131 8.75627L9.27077 8.79347L9.32967 8.84927L9.39942 8.89422L9.48157 8.93142L9.56993 8.96397L9.66293 8.99342L9.76058 9.02598L9.85669 9.06008L9.94969 9.09883L10.038 9.14843L10.1202 9.21043L10.193 9.28329L10.2551 9.37319L10.3016 9.48479L10.331 9.61655L10.3419 9.77465L10.331 9.95911L10.3109 10.0971L10.2752 10.2164L10.2287 10.328L10.1698 10.4241L10.1031 10.5094L10.0256 10.5822L9.94504 10.6473L9.85359 10.7031L9.76058 10.7465L9.66293 10.7853L9.56373 10.8147L9.46142 10.838L9.36222 10.855L9.26456 10.8643L9.16846 10.869L9.07856 10.8721H8.95145L8.8352 10.869H8.7329L8.63524 10.8674L8.54844 10.8643L8.46939 10.8581L8.39808 10.8519L8.33143 10.8426L8.26943 10.838L8.21363 10.8256L8.15937 10.8163L8.10822 10.8023L8.05862 10.7899L8.01212 10.7729L7.96562 10.7558L7.91602 10.7372L8.04777 10.0909L8.07412 10.0971L8.10667 10.1048L8.14697 10.1172L8.19658 10.1296L8.24928 10.1405L8.30818 10.1529L8.37173 10.1668L8.44304 10.1792L8.51589 10.1901L8.59184 10.2025L8.67089 10.2118L8.75305 10.2195L8.8383 10.2226L8.922 10.2257H9.00726L9.09251 10.2226L9.17776 10.2056L9.24441 10.1823L9.29712 10.1498L9.33897 10.1079L9.36842 10.0676L9.39167 10.0211L9.40562 9.97461L9.41802 9.92966L9.42267 9.84441L9.39632 9.77155L9.34672 9.71265L9.27387 9.66305L9.18551 9.61965L9.08321 9.57625L8.97005 9.53439L8.85535 9.48789L8.7391 9.43519L8.62749 9.37319L8.52519 9.29724L8.43063 9.20733L8.35778 9.09573L8.30508 8.96397L8.27873 8.80587L8.28183 8.61831L8.29578 8.50361L8.31748 8.39665L8.34538 8.2959L8.38103 8.2029L8.42753 8.11454L8.48024 8.03859L8.54224 7.96574L8.61509 7.90064L8.70034 7.84638L8.79335 7.79833L8.89875 7.75493L9.01656 7.72238L9.14831 7.69603L9.29092 7.67588L9.44902 7.66348L9.62263 7.66193H9.73113L9.83034 7.66348L9.92179 7.66658L10.0024 7.66968L10.0768 7.67588L10.1434 7.68208L10.2023 7.68828L10.2551 7.69293L10.3047 7.69913L10.345 7.70843L10.3837 7.71463L10.4194 7.71928L10.4473 7.72548L10.4736 7.72858L10.5 7.73478L10.5248 7.73788L10.3744 8.3982Z" fill="white"/>
<path d="M10.3744 8.3982L10.3341 8.39665L10.2923 8.39045L10.2551 8.38425L10.2163 8.37805L10.1822 8.37185L10.1434 8.3672L10.1047 8.361L10.0644 8.3548L10.0241 8.3486L9.97604 8.3455L9.92334 8.34395L9.86909 8.34085H9.80708L9.73888 8.34395L9.66293 8.3486L9.57923 8.3548L9.52032 8.3641L9.46452 8.37185L9.41492 8.39045L9.36997 8.4075L9.32967 8.42765L9.29092 8.45091L9.26301 8.48036L9.23666 8.50671L9.21806 8.53926L9.20411 8.57181L9.19791 8.60746V8.64156L9.20721 8.68031L9.21806 8.71751L9.24131 8.75627L9.27077 8.79347L9.32967 8.84927L9.39942 8.89422L9.48157 8.93142L9.56993 8.96397L9.66293 8.99342L9.76058 9.02598L9.85669 9.06008L9.94969 9.09883L10.038 9.14843L10.1202 9.21043L10.193 9.28329L10.2551 9.37319L10.3016 9.48479L10.331 9.61655L10.3419 9.77465L10.331 9.95911L10.3109 10.0971L10.2752 10.2164L10.2287 10.328L10.1698 10.4241L10.1031 10.5094L10.0256 10.5822L9.94504 10.6473L9.85359 10.7031L9.76058 10.7465L9.66293 10.7853L9.56373 10.8147L9.46142 10.838L9.36222 10.855L9.26457 10.8643L9.16846 10.869L9.07856 10.8721H8.95145L8.8352 10.869H8.7329L8.63524 10.8674L8.54844 10.8643L8.46939 10.8581L8.39808 10.8519L8.33143 10.8426L8.26943 10.838L8.21363 10.8256L8.15937 10.8163L8.10822 10.8023L8.05862 10.7899L8.01212 10.7729L7.96562 10.7558L7.91602 10.7372L8.04777 10.0909L8.07412 10.0971L8.10667 10.1048L8.14697 10.1172L8.19658 10.1296L8.24928 10.1405L8.30818 10.1529L8.37173 10.1668L8.44304 10.1792L8.51589 10.1901L8.59184 10.2025L8.67089 10.2118L8.75305 10.2195L8.8383 10.2226L8.922 10.2257H9.00726L9.09251 10.2226L9.17776 10.2056L9.24441 10.1823L9.29712 10.1498L9.33897 10.1079L9.36842 10.0676L9.39167 10.0211L9.40562 9.97461L9.41802 9.92966L9.42267 9.84441L9.39632 9.77155L9.34672 9.71265L9.27387 9.66305L9.18551 9.61965L9.08321 9.57625L8.97005 9.53439L8.85535 9.48789L8.7391 9.43519L8.62749 9.37319L8.52519 9.29724L8.43063 9.20733L8.35778 9.09573L8.30508 8.96397L8.27873 8.80587L8.28183 8.61831L8.29578 8.50361L8.31748 8.39665L8.34538 8.2959L8.38103 8.2029L8.42753 8.11454L8.48024 8.03859L8.54224 7.96574L8.61509 7.90064L8.70034 7.84638L8.79335 7.79833L8.89875 7.75493L9.01656 7.72238L9.14831 7.69603L9.29092 7.67588L9.44902 7.66348L9.62263 7.66193H9.73113L9.83034 7.66348L9.92179 7.66658L10.0024 7.66968L10.0768 7.67588L10.1434 7.68208L10.2023 7.68828L10.2551 7.69293L10.3047 7.69913L10.345 7.70843L10.3837 7.71463L10.4194 7.71928L10.4473 7.72548L10.4736 7.72858L10.5 7.73478L10.5248 7.73788L10.3744 8.3982Z" stroke="white" stroke-width="0.216" stroke-miterlimit="2.6131"/>
<path fill-rule="evenodd" clip-rule="evenodd" d="M11.0688 7.014H11.8795L11.7601 7.72238H12.2484L12.143 8.38425L11.6284 8.3703L11.3463 10.0025L11.3432 10.0614L11.3587 10.111L11.3881 10.1498L11.4253 10.1823L11.478 10.2025L11.5369 10.2195L11.602 10.2319L11.6718 10.2381L11.7353 10.235L11.7942 10.2288L11.8469 10.2195L11.8934 10.2087L11.9322 10.1963L11.9585 10.187L11.9756 10.1823L11.9818 10.1792L11.8795 10.7233L11.8593 10.7372L11.8392 10.7496L11.8175 10.762L11.7973 10.7729L11.7772 10.7822L11.7539 10.7899L11.7276 10.7992L11.7012 10.8085L11.6718 10.8163L11.6423 10.8225L11.6067 10.8287L11.5726 10.8349L11.5338 10.8411L11.4904 10.8457L11.4439 10.8519L11.3928 10.8581H11.1711L11.0533 10.8488L10.951 10.838L10.858 10.8194L10.7789 10.7992L10.7107 10.7729L10.6565 10.7434L10.6053 10.7093L10.5681 10.6706L10.5387 10.6303L10.5185 10.5791L10.503 10.5295L10.4953 10.4737L10.4922 10.4133V10.3482L10.4999 10.2815L10.5092 10.2087L11.0688 7.014Z" fill="white"/>
<path d="M11.0688 7.014H11.8795L11.7601 7.72238H12.2484L12.143 8.38425L11.6284 8.3703L11.3463 10.0025L11.3432 10.0614L11.3587 10.111L11.3881 10.1498L11.4253 10.1823L11.478 10.2025L11.5369 10.2195L11.602 10.2319L11.6718 10.2381L11.7353 10.235L11.7942 10.2288L11.8469 10.2195L11.8934 10.2087L11.9322 10.1963L11.9585 10.187L11.9756 10.1823L11.9818 10.1792L11.8795 10.7233L11.8593 10.7372L11.8392 10.7496L11.8175 10.762L11.7973 10.7729L11.7772 10.7822L11.7539 10.7899L11.7276 10.7992L11.7012 10.8085L11.6718 10.8163L11.6423 10.8225L11.6067 10.8287L11.5726 10.8349L11.5338 10.8411L11.4904 10.8457L11.4439 10.8519L11.3928 10.8581H11.1711L11.0533 10.8488L10.951 10.838L10.858 10.8194L10.7789 10.7992L10.7107 10.7729L10.6565 10.7434L10.6053 10.7093L10.5681 10.6706L10.5387 10.6303L10.5185 10.5791L10.503 10.5295L10.4953 10.4737L10.4922 10.4133V10.3482L10.4999 10.2815L10.5092 10.2087L11.0688 7.014Z" stroke="white" stroke-width="0.216" stroke-miterlimit="2.6131"/>
<path fill-rule="evenodd" clip-rule="evenodd" d="M12.8951 9.48789L12.8873 9.53749L12.8842 9.5902L12.8904 9.646L12.9013 9.7018L12.9214 9.7576L12.9447 9.8103L12.9773 9.86611L13.0129 9.91571L13.0532 9.96531L13.0982 10.0087L13.1447 10.0537L13.1974 10.0878L13.2501 10.1203L13.309 10.1467L13.3663 10.1668L13.4252 10.1792L13.5012 10.1901L13.5756 10.1994L13.6515 10.2087L13.7275 10.2133L13.8034 10.2164H13.8825L13.9584 10.2133L14.0375 10.2087L14.1165 10.1963L14.1956 10.1823L14.2777 10.1637L14.3568 10.1374L14.439 10.1048L14.5227 10.0707L14.6048 10.0242L14.6901 9.97461L14.5738 10.6938L14.5258 10.7171L14.4793 10.7403L14.4328 10.7589L14.3894 10.776L14.3444 10.7899L14.2979 10.8054L14.2514 10.8163L14.2018 10.8256L14.1491 10.8349L14.0902 10.8411L14.0282 10.8457L13.9615 10.8519L13.8856 10.855H13.8065L13.7151 10.8581H13.619L13.4748 10.855L13.3291 10.8411L13.1819 10.8194L13.0362 10.7853L12.892 10.7403L12.7556 10.6845L12.6238 10.6117L12.4998 10.5264L12.3867 10.4272L12.2875 10.3079L12.2022 10.173L12.1309 10.018L12.0813 9.8444L12.0503 9.6491L12.041 9.43209L12.055 9.19183L12.0674 9.09883L12.0844 8.99032L12.1077 8.87562L12.1402 8.75317L12.1836 8.62761L12.2363 8.50206L12.3045 8.37185L12.3867 8.2494L12.4797 8.13314L12.5944 8.02154L12.723 7.92234L12.8687 7.83398L13.0393 7.76113L13.2299 7.70843L13.4407 7.67278L13.6779 7.66193L13.791 7.66348L13.9119 7.67588L14.0313 7.69603L14.1522 7.72548L14.2684 7.76888L14.3832 7.82158L14.4886 7.89288L14.5847 7.97504L14.673 8.07424L14.7459 8.1905L14.8048 8.32535L14.8451 8.48036L14.8683 8.65706L14.8714 8.85547L14.8513 9.07868L14.8079 9.32359L14.7924 9.50184H12.6579L12.7928 8.92522H14.0747L14.0809 8.85237L14.0778 8.78262L14.0731 8.71751L14.0607 8.66016L14.0406 8.60436L14.0204 8.55476L13.991 8.50981L13.9615 8.46951L13.9259 8.43385L13.8887 8.4044L13.8437 8.37805L13.8003 8.3548L13.7538 8.33775L13.7073 8.32535L13.6562 8.3176L13.6035 8.3114L13.5492 8.3145L13.4965 8.32225L13.4454 8.33465L13.3958 8.3517L13.3462 8.37495L13.3028 8.4013L13.2594 8.43385L13.2206 8.46951L13.1819 8.50981L13.1478 8.55476L13.1152 8.60126L13.0889 8.65086L13.0625 8.70356L13.0424 8.76247L13.0238 8.81982L13.0129 8.88182L12.8951 9.48789Z" fill="white"/>
<path d="M12.8951 9.48789L12.8873 9.53749L12.8842 9.5902L12.8904 9.646L12.9013 9.7018L12.9214 9.7576L12.9447 9.8103L12.9773 9.86611L13.0129 9.91571L13.0532 9.96531L13.0982 10.0087L13.1447 10.0537L13.1974 10.0878L13.2501 10.1203L13.309 10.1467L13.3663 10.1668L13.4252 10.1792L13.5012 10.1901L13.5756 10.1994L13.6515 10.2087L13.7275 10.2133L13.8034 10.2164H13.8825L13.9584 10.2133L14.0375 10.2087L14.1165 10.1963L14.1956 10.1823L14.2777 10.1637L14.3568 10.1374L14.439 10.1048L14.5227 10.0707L14.6048 10.0242L14.6901 9.97461L14.5738 10.6938L14.5258 10.7171L14.4793 10.7403L14.4328 10.7589L14.3894 10.776L14.3444 10.7899L14.2979 10.8054L14.2514 10.8163L14.2018 10.8256L14.1491 10.8349L14.0902 10.8411L14.0282 10.8457L13.9615 10.8519L13.8856 10.855H13.8065L13.7151 10.8581H13.619L13.4748 10.855L13.3291 10.8411L13.1819 10.8194L13.0362 10.7853L12.892 10.7403L12.7556 10.6845L12.6238 10.6117L12.4998 10.5264L12.3867 10.4272L12.2875 10.3079L12.2022 10.173L12.1309 10.018L12.0813 9.8444L12.0503 9.6491L12.041 9.43209L12.055 9.19183L12.0674 9.09883L12.0844 8.99032L12.1077 8.87562L12.1402 8.75317L12.1836 8.62761L12.2363 8.50206L12.3045 8.37185L12.3867 8.2494L12.4797 8.13314L12.5944 8.02154L12.723 7.92234L12.8687 7.83398L13.0393 7.76113L13.2299 7.70843L13.4407 7.67278L13.6779 7.66193L13.791 7.66348L13.9119 7.67588L14.0313 7.69603L14.1522 7.72548L14.2684 7.76888L14.3832 7.82158L14.4886 7.89288L14.5847 7.97504L14.673 8.07424L14.7459 8.1905L14.8048 8.32535L14.8451 8.48036L14.8683 8.65706L14.8714 8.85547L14.8513 9.07868L14.8079 9.32359L14.7924 9.50184H12.6579L12.7928 8.92522H14.0747L14.0809 8.85237L14.0778 8.78262L14.0731 8.71751L14.0607 8.66016L14.0406 8.60436L14.0204 8.55476L13.991 8.50981L13.9615 8.46951L13.9259 8.43385L13.8887 8.4044L13.8437 8.37805L13.8003 8.3548L13.7538 8.33775L13.7073 8.32535L13.6562 8.3176L13.6035 8.3114L13.5492 8.3145L13.4965 8.32225L13.4454 8.33465L13.3958 8.3517L13.3462 8.37495L13.3028 8.4013L13.2594 8.43385L13.2206 8.46951L13.1819 8.50981L13.1478 8.55476L13.1152 8.60126L13.0889 8.65086L13.0625 8.70356L13.0424 8.76247L13.0238 8.81982L13.0129 8.88182L12.8951 9.48789Z" stroke="white" stroke-width="0.216" stroke-miterlimit="2.6131"/>
<path fill-rule="evenodd" clip-rule="evenodd" d="M19.8776 7.89908L19.8388 7.87738L19.8016 7.86033L19.7598 7.84018L19.7164 7.82003L19.673 7.80143L19.6218 7.78438L19.5722 7.76733L19.5195 7.74873L19.4637 7.73478L19.4095 7.72238L19.3475 7.71153L19.2855 7.70223L19.2188 7.69603L19.1506 7.68983H19.0809H19.008H18.9351L18.8576 7.69603L18.7786 7.70533L18.698 7.71928L18.6158 7.74253L18.5337 7.77508L18.4515 7.81693L18.3694 7.86963L18.2903 7.93319L18.2144 8.00914L18.1415 8.10369L18.0702 8.2122L18.0067 8.34085L17.9447 8.48656L17.8889 8.65086L17.8424 8.83842L17.8253 8.94382L17.8129 9.04613L17.8067 9.14843L17.8098 9.24763L17.8191 9.34684L17.8393 9.44139L17.8656 9.52819L17.8982 9.61655L17.9416 9.6956L17.9943 9.77155L18.0563 9.83976L18.126 9.90021L18.2051 9.95291L18.2965 9.99786L18.3957 10.0351L18.5073 10.0614L18.5445 10.0707L18.5895 10.08L18.6422 10.0847L18.6995 10.0909L18.7646 10.0971H18.8313H18.9057L18.9785 10.0909L19.0545 10.0816L19.1305 10.0676L19.2033 10.0475L19.2777 10.0242L19.3506 9.99166L19.4172 9.95291L19.4792 9.90641L19.5381 9.85371L19.4064 10.6349L19.3878 10.6504L19.3707 10.6675L19.3475 10.6876L19.3211 10.7062L19.2886 10.7295L19.2483 10.7496L19.2002 10.7698L19.1475 10.7884L19.0809 10.8085L19.0049 10.8225L18.9165 10.8349L18.8142 10.8457L18.6995 10.8519L18.5678 10.855L18.419 10.8519L18.2547 10.8426L18.1214 10.8287L17.9865 10.7992L17.8517 10.7558L17.7168 10.6969L17.5881 10.6272L17.4641 10.5388L17.3479 10.4365L17.2394 10.3187L17.1433 10.187L17.0611 10.0413L16.9914 9.87696L16.9387 9.6987L16.903 9.50184L16.8906 9.29414L16.8968 9.06628L16.9294 8.82292L16.9526 8.70356L16.979 8.58576L17.0084 8.47261L17.0379 8.3641L17.0704 8.2618L17.1076 8.15949L17.1464 8.06184L17.1867 7.97194L17.2301 7.88048L17.275 7.79523L17.3246 7.71463L17.3773 7.63713L17.43 7.56427L17.4889 7.49452L17.5463 7.42942L17.6083 7.36897L17.675 7.31006L17.7432 7.25426L17.8129 7.20466L17.8858 7.15816L17.9648 7.11321L18.0439 7.076L18.126 7.04035L18.2113 7.0078L18.3027 6.97835L18.3926 6.9551L18.4872 6.93495L18.5864 6.9179L18.6856 6.9024L18.791 6.89155L18.8964 6.88535L19.008 6.88225L19.101 6.88535L19.1925 6.89155L19.2793 6.8993L19.3676 6.9117L19.4498 6.9241L19.5288 6.94115L19.6048 6.9551L19.6745 6.9737L19.7427 6.99075L19.8016 7.0078L19.8574 7.0264L19.9039 7.04345L19.9442 7.0574L19.9799 7.0698L20.0062 7.0822L20.0233 7.08686L19.8776 7.89908Z" fill="white"/>
<path d="M19.8776 7.89908L19.8388 7.87738L19.8016 7.86033L19.7598 7.84018L19.7164 7.82003L19.673 7.80143L19.6218 7.78438L19.5722 7.76733L19.5195 7.74873L19.4637 7.73478L19.4095 7.72238L19.3475 7.71153L19.2855 7.70223L19.2188 7.69603L19.1506 7.68983H19.0809H19.008H18.9351L18.8576 7.69603L18.7786 7.70533L18.698 7.71928L18.6158 7.74253L18.5337 7.77508L18.4515 7.81693L18.3694 7.86963L18.2903 7.93319L18.2144 8.00914L18.1415 8.10369L18.0702 8.2122L18.0067 8.34085L17.9447 8.48656L17.8889 8.65086L17.8424 8.83842L17.8253 8.94382L17.8129 9.04613L17.8067 9.14843L17.8098 9.24763L17.8191 9.34684L17.8393 9.44139L17.8656 9.52819L17.8982 9.61655L17.9416 9.6956L17.9943 9.77155L18.0563 9.83976L18.126 9.90021L18.2051 9.95291L18.2965 9.99786L18.3957 10.0351L18.5073 10.0614L18.5445 10.0707L18.5895 10.08L18.6422 10.0847L18.6995 10.0909L18.7646 10.0971H18.8313H18.9057L18.9785 10.0909L19.0545 10.0816L19.1305 10.0676L19.2033 10.0475L19.2777 10.0242L19.3506 9.99166L19.4172 9.95291L19.4792 9.90641L19.5381 9.85371L19.4064 10.6349L19.3878 10.6504L19.3707 10.6675L19.3475 10.6876L19.3211 10.7062L19.2886 10.7295L19.2483 10.7496L19.2002 10.7698L19.1475 10.7884L19.0809 10.8085L19.0049 10.8225L18.9165 10.8349L18.8142 10.8457L18.6995 10.8519L18.5678 10.855L18.419 10.8519L18.2547 10.8426L18.1214 10.8287L17.9865 10.7992L17.8517 10.7558L17.7168 10.6969L17.5881 10.6272L17.4641 10.5388L17.3479 10.4365L17.2394 10.3187L17.1433 10.187L17.0611 10.0413L16.9914 9.87696L16.9387 9.6987L16.903 9.50184L16.8906 9.29414L16.8968 9.06628L16.9294 8.82292L16.9526 8.70356L16.979 8.58576L17.0084 8.47261L17.0379 8.3641L17.0704 8.2618L17.1076 8.15949L17.1464 8.06184L17.1867 7.97194L17.2301 7.88048L17.275 7.79523L17.3246 7.71463L17.3773 7.63713L17.43 7.56427L17.4889 7.49452L17.5463 7.42942L17.6083 7.36897L17.675 7.31006L17.7432 7.25426L17.8129 7.20466L17.8858 7.15816L17.9648 7.11321L18.0439 7.076L18.126 7.04035L18.2113 7.0078L18.3027 6.97835L18.3926 6.9551L18.4872 6.93495L18.5864 6.9179L18.6856 6.9024L18.791 6.89155L18.8964 6.88535L19.008 6.88225L19.101 6.88535L19.1925 6.89155L19.2793 6.8993L19.3676 6.9117L19.4498 6.9241L19.5288 6.94115L19.6048 6.9551L19.6745 6.9737L19.7427 6.99075L19.8016 7.0078L19.8574 7.0264L19.9039 7.04345L19.9442 7.0574L19.9799 7.0698L20.0062 7.0822L20.0233 7.08686L19.8776 7.89908Z" stroke="white" stroke-width="0.216" stroke-miterlimit="2.6131"/>
<path fill-rule="evenodd" clip-rule="evenodd" d="M27.0843 10.8581H26.2737L26.3326 10.5326V10.5032L26.2861 10.5621L26.2365 10.6148L26.1869 10.6613L26.1342 10.7031L26.0815 10.7403L26.0288 10.7729L25.9761 10.7992L25.9203 10.8256L25.8645 10.8457L25.8086 10.8612L25.7528 10.8752L25.6939 10.8845L25.6366 10.8938L25.5808 10.8984L25.5219 10.9015H25.463L25.3111 10.8907L25.17 10.8581L25.0414 10.8085L24.9251 10.7403L24.8197 10.6566L24.7252 10.5559L24.643 10.4474L24.5733 10.3249L24.5143 10.1932L24.4678 10.0552L24.4353 9.91261L24.412 9.7638L24.4043 9.61345L24.4058 9.46154L24.4213 9.31274L24.4477 9.16238L24.4911 8.99032L24.5438 8.82602L24.6058 8.67721L24.6787 8.53616L24.7546 8.4044L24.843 8.28815L24.9329 8.18274L25.0305 8.08509L25.1328 8.00139L25.2413 7.92699L25.3514 7.86343L25.463 7.81383L25.5808 7.77198L25.697 7.74563L25.8148 7.72858L25.9342 7.72238L26.0195 7.72548L26.1016 7.73478L26.1776 7.74873L26.2473 7.76888L26.3155 7.79368L26.3744 7.82003L26.4318 7.85103L26.4845 7.88358L26.5325 7.91924L26.5759 7.95644L26.6131 7.99519L26.6488 8.03239L26.6782 8.07114L26.7046 8.10834L26.7278 8.14399L26.7449 8.17964L26.951 7.0295H27.7462L27.0843 10.8581Z" fill="white"/>
<path d="M27.0843 10.8581H26.2737L26.3326 10.5326V10.5032L26.2861 10.5621L26.2365 10.6148L26.1869 10.6613L26.1342 10.7031L26.0815 10.7403L26.0288 10.7729L25.9761 10.7992L25.9203 10.8256L25.8645 10.8457L25.8086 10.8612L25.7528 10.8752L25.6939 10.8845L25.6366 10.8938L25.5808 10.8984L25.5219 10.9015H25.463L25.3111 10.8907L25.17 10.8581L25.0414 10.8085L24.9251 10.7403L24.8197 10.6566L24.7252 10.5559L24.643 10.4474L24.5733 10.3249L24.5143 10.1932L24.4678 10.0552L24.4353 9.91261L24.412 9.7638L24.4043 9.61345L24.4058 9.46154L24.4213 9.31274L24.4477 9.16238L24.4911 8.99032L24.5438 8.82602L24.6058 8.67721L24.6787 8.53616L24.7546 8.4044L24.843 8.28815L24.9329 8.18274L25.0305 8.08509L25.1328 8.00139L25.2413 7.92699L25.3514 7.86343L25.463 7.81383L25.5808 7.77198L25.697 7.74563L25.8148 7.72858L25.9342 7.72238L26.0195 7.72548L26.1016 7.73478L26.1776 7.74873L26.2473 7.76888L26.3155 7.79368L26.3744 7.82003L26.4318 7.85103L26.4845 7.88358L26.5325 7.91924L26.5759 7.95644L26.6131 7.99519L26.6488 8.03239L26.6782 8.07114L26.7046 8.10834L26.7278 8.14399L26.7449 8.17964L26.951 7.0295H27.7462L27.0843 10.8581Z" stroke="white" stroke-width="0.216" stroke-miterlimit="2.6131"/>
<path fill-rule="evenodd" clip-rule="evenodd" d="M25.759 10.1498L25.8411 10.1436L25.9171 10.1265L25.9869 10.1048L26.0551 10.0738L26.1155 10.0382L26.1744 9.99476L26.2302 9.94516L26.2798 9.89245L26.3232 9.83355L26.3651 9.76845L26.4023 9.7018L26.4348 9.63204L26.4643 9.55764L26.4875 9.48169L26.5077 9.40264L26.5232 9.32358L26.5371 9.24143L26.5464 9.15773V9.07867L26.5433 8.99652L26.534 8.92057L26.5232 8.84617L26.503 8.77641L26.4798 8.70976L26.4503 8.65086L26.4147 8.59506L26.3759 8.54856L26.3325 8.5067L26.2829 8.4726L26.2302 8.44935L26.1744 8.43385L26.1124 8.42765L26.0334 8.43385L25.9605 8.44625L25.8938 8.4695L25.8256 8.49895L25.7683 8.53615L25.7094 8.58266L25.6598 8.63381L25.6102 8.68806L25.5652 8.75316L25.5249 8.81982L25.4862 8.89112L25.4552 8.96707L25.4257 9.04612L25.4025 9.12518L25.3777 9.21043L25.3606 9.29413L25.3467 9.42279L25.3513 9.56384L25.373 9.708L25.4102 9.8444L25.4691 9.96531L25.5451 10.0614L25.6412 10.1265L25.759 10.1498Z" fill="#FCB331"/>
<path fill-rule="evenodd" clip-rule="evenodd" d="M7.78093 10.2087L7.66312 10.8581H6.92529L6.947 10.7372L6.96095 10.6303L6.97335 10.5481L6.9842 10.5032L6.9439 10.5512L6.89739 10.5977L6.84159 10.6411L6.77959 10.683L6.70984 10.7233L6.63543 10.7589L6.55948 10.793L6.48043 10.8225L6.39673 10.8488L6.31147 10.869L6.22622 10.8876L6.13787 10.8984L6.05416 10.9046L5.96891 10.9077L5.88676 10.8984L5.80771 10.8876L5.7054 10.8612L5.61085 10.8318L5.53025 10.793L5.45584 10.7496L5.39229 10.7031L5.33339 10.6504L5.28689 10.5946L5.24504 10.5357L5.21093 10.4737L5.18148 10.4102L5.15823 10.3451L5.13963 10.2815L5.12878 10.2133L5.11948 10.1467L5.11328 10.0816V10.018L5.12258 9.90331L5.13963 9.79481L5.16908 9.6925L5.20783 9.5933L5.25434 9.5003L5.30704 9.41504L5.36904 9.33289L5.43879 9.26004L5.51165 9.19184L5.5938 9.13138L5.67905 9.07558L5.7674 9.02908L5.86041 8.98723L5.95651 8.95468L6.05726 8.92833L6.15957 8.91128H6.16422L6.17972 8.90818L6.19987 8.90507L6.23242 8.90197L6.26807 8.89732L6.30837 8.89422L6.35177 8.88802L6.40138 8.88182L6.45253 8.87562L6.50213 8.87097L6.55483 8.86787L6.60133 8.86167L6.64783 8.85857L6.69124 8.85547L6.73309 8.85237H6.76564H6.83229L6.90204 8.85547L6.96715 8.85857H7.0307L7.0834 8.86167L7.12525 8.86477L7.1547 8.86787H7.16245L7.16865 8.84617L7.18725 8.79347L7.2012 8.73302L7.2074 8.67722L7.195 8.61211L7.16865 8.55476L7.13455 8.50206L7.0865 8.45711L7.0307 8.41991L6.97025 8.39356L6.89894 8.37496L6.82299 8.37031L6.74084 8.36721L6.65404 8.3641H6.56258L6.46958 8.36721L6.37348 8.37186L6.27892 8.38116L6.18592 8.39046L6.09447 8.40131L6.00611 8.41371L5.92241 8.42766L5.84646 8.44316L5.77515 8.45711L5.7116 8.47571L5.6589 8.49276L5.61705 8.51291L5.5845 8.52996L5.79376 7.82469L5.85731 7.79833L5.92241 7.77508L5.99216 7.75493L6.06191 7.74098L6.13322 7.72548L6.20917 7.71463L6.28512 7.70223L6.36418 7.69603L6.44633 7.68983L6.53003 7.68828L6.61838 7.68518H6.70984H6.80284H6.89894L7.0028 7.68828L7.1051 7.68983L7.18725 7.69603L7.27406 7.71153L7.36551 7.73168L7.45851 7.75803L7.54997 7.79368L7.63677 7.83399L7.72512 7.88359L7.80728 7.93939L7.88013 8.00449L7.94523 8.07424L8.00258 8.1533L8.04753 8.2401L8.07699 8.33465L8.09404 8.43386V8.54546L8.07699 8.66172L7.78093 10.2087Z" fill="white"/>
<path d="M7.78092 10.2087L7.66312 10.8581H6.92529L6.947 10.7372L6.96095 10.6303L6.97335 10.5481L6.9842 10.5032L6.9439 10.5512L6.89739 10.5977L6.84159 10.6411L6.77959 10.683L6.70984 10.7233L6.63543 10.7589L6.55948 10.793L6.48043 10.8225L6.39673 10.8488L6.31147 10.869L6.22622 10.8876L6.13787 10.8984L6.05416 10.9046L5.96891 10.9077L5.88676 10.8984L5.80771 10.8876L5.7054 10.8612L5.61085 10.8318L5.53025 10.793L5.45584 10.7496L5.39229 10.7031L5.33339 10.6504L5.28689 10.5946L5.24504 10.5357L5.21093 10.4737L5.18148 10.4102L5.15823 10.3451L5.13963 10.2815L5.12878 10.2133L5.11948 10.1467L5.11328 10.0816V10.018L5.12258 9.90331L5.13963 9.79481L5.16908 9.6925L5.20783 9.5933L5.25434 9.5003L5.30704 9.41504L5.36904 9.33289L5.43879 9.26004L5.51165 9.19184L5.5938 9.13138L5.67905 9.07558L5.7674 9.02908L5.86041 8.98723L5.95651 8.95468L6.05726 8.92833L6.15957 8.91128H6.16422L6.17972 8.90818L6.19987 8.90507L6.23242 8.90197L6.26807 8.89732L6.30837 8.89422L6.35177 8.88802L6.40138 8.88182L6.45253 8.87562L6.50213 8.87097L6.55483 8.86787L6.60133 8.86167L6.64783 8.85857L6.69124 8.85547L6.73309 8.85237H6.76564H6.83229L6.90204 8.85547L6.96715 8.85857H7.0307L7.0834 8.86167L7.12525 8.86477L7.1547 8.86787H7.16245L7.16865 8.84617L7.18725 8.79347L7.2012 8.73302L7.2074 8.67722L7.195 8.61211L7.16865 8.55476L7.13455 8.50206L7.0865 8.45711L7.0307 8.41991L6.97025 8.39356L6.89894 8.37496L6.82299 8.37031L6.74084 8.36721L6.65404 8.3641H6.56258L6.46958 8.36721L6.37348 8.37186L6.27892 8.38116L6.18592 8.39046L6.09447 8.40131L6.00611 8.41371L5.92241 8.42766L5.84646 8.44316L5.77515 8.45711L5.7116 8.47571L5.6589 8.49276L5.61705 8.51291L5.5845 8.52996L5.79376 7.82469L5.85731 7.79833L5.92241 7.77508L5.99216 7.75493L6.06191 7.74098L6.13322 7.72548L6.20917 7.71463L6.28512 7.70223L6.36418 7.69603L6.44633 7.68983L6.53003 7.68828L6.61838 7.68518H6.70984H6.80284H6.89894L7.0028 7.68828L7.1051 7.68983L7.18725 7.69603L7.27406 7.71153L7.36551 7.73168L7.45851 7.75803L7.54997 7.79368L7.63677 7.83399L7.72512 7.88359L7.80728 7.93939L7.88013 8.00449L7.94523 8.07424L8.00258 8.1533L8.04753 8.2401L8.07699 8.33465L8.09404 8.43386V8.54546L8.07699 8.66172L7.78092 10.2087Z" stroke="white" stroke-width="0.216" stroke-miterlimit="2.6131"/>
<path fill-rule="evenodd" clip-rule="evenodd" d="M7.07535 9.44449L7.07225 9.42899L7.05985 9.41504L7.0428 9.40574L7.01335 9.39954L6.9808 9.39489L6.9436 9.39179H6.89864H6.85524L6.80874 9.39489L6.75914 9.39954L6.71264 9.40574L6.66459 9.41194L6.62119 9.41814L6.58088 9.42589L6.54523 9.43519L6.51268 9.44449L6.49253 9.44914L6.46928 9.45844L6.43673 9.47085L6.40418 9.4848L6.36698 9.50185L6.32822 9.52355L6.28792 9.5437L6.24917 9.56695L6.20887 9.5964L6.17012 9.62585L6.13602 9.65995L6.10347 9.6956L6.07402 9.73436L6.05387 9.77466L6.03526 9.82116L6.02751 9.86921L6.02441 9.96841L6.03836 10.0475L6.06782 10.1048L6.10657 10.1498L6.14997 10.1792L6.19957 10.1963L6.24607 10.2056L6.29412 10.2087L6.38093 10.2056L6.45998 10.1963L6.53593 10.1854L6.60413 10.1668L6.66149 10.1467L6.71729 10.1203L6.76689 10.094L6.81184 10.0614L6.84904 10.032L6.88469 9.99787L6.91415 9.96531L6.9374 9.92966L6.95755 9.89556L6.97615 9.85991L6.9901 9.82736L6.9994 9.79481L7.02265 9.7111L7.0428 9.61345L7.05985 9.52045L7.07535 9.44449Z" fill="#ED1B2E"/>
<path fill-rule="evenodd" clip-rule="evenodd" d="M1.62135 10.8581H0.826172L1.4896 7.014H2.87535L3.0071 9.29413L3.96349 7.014H5.40969L4.73077 10.8581H3.93404L4.4378 7.98589H4.40525L3.21481 10.8581H2.31578L2.30958 10.7372L2.28943 10.4195L2.26307 9.96531L2.23362 9.44449L2.20417 8.92057L2.17782 8.4602L2.15767 8.12694L2.15147 7.98589H2.14217H2.12512H2.10807L1.62135 10.8581Z" fill="white"/>
<path d="M1.62135 10.8581H0.826172L1.4896 7.014H2.87535L3.0071 9.29413L3.96349 7.014H5.40969L4.73077 10.8581H3.93404L4.4378 7.98589H4.40525L3.21481 10.8581H2.31578L2.30958 10.7372L2.28943 10.4195L2.26307 9.96531L2.23362 9.44449L2.20417 8.92057L2.17782 8.4602L2.15767 8.12694L2.15147 7.98589H2.14217H2.12512H2.10807L1.62135 10.8581Z" stroke="white" stroke-width="0.216" stroke-miterlimit="2.6131"/>
<path fill-rule="evenodd" clip-rule="evenodd" d="M22.3104 10.2087L22.191 10.8581H21.4563L21.4609 10.7372L21.464 10.6318V10.5528L21.4702 10.5187L21.433 10.5621L21.3881 10.6055L21.3354 10.6473L21.2765 10.6876L21.216 10.7264L21.1447 10.762L21.0719 10.7961L20.999 10.8256L20.92 10.8488L20.8378 10.8721L20.7556 10.8876L20.6735 10.8984L20.5898 10.9046L20.5076 10.9077L20.4286 10.8984L20.3495 10.8876L20.2441 10.8612L20.1496 10.8318L20.0674 10.793L19.9915 10.7496L19.9279 10.7031L19.8721 10.6504L19.8256 10.5946L19.7838 10.5357L19.7497 10.4737L19.7233 10.4102L19.7001 10.3451L19.6846 10.2815L19.6737 10.2133L19.6644 10.1467L19.6582 10.0816V10.018L19.6644 9.90331L19.6815 9.79481L19.7078 9.6925L19.7466 9.5933L19.79 9.5003L19.8458 9.41504L19.9078 9.33289L19.9744 9.26004L20.0504 9.19184L20.1294 9.13138L20.2147 9.07558L20.3046 9.02908L20.396 8.98723L20.4921 8.95468L20.5898 8.92833L20.689 8.91128H20.6952L20.7091 8.90818L20.7293 8.90507L20.7587 8.90197L20.7975 8.89732L20.8378 8.89422L20.8828 8.88802L20.9293 8.88182L20.9789 8.87562L21.0316 8.87097L21.0812 8.86787L21.1308 8.86167L21.1773 8.85857L21.2191 8.85547L21.2594 8.85237H21.292H21.3617L21.433 8.85547L21.4997 8.85857H21.5648L21.619 8.86167L21.6671 8.86477L21.6934 8.86787H21.7043L21.7105 8.84617L21.7198 8.79347L21.7275 8.73302L21.7337 8.67722L21.7229 8.61211L21.6981 8.55476L21.6609 8.50206L21.6175 8.45711L21.5648 8.41991L21.5028 8.39356L21.4377 8.37496L21.3679 8.37031L21.2858 8.36721L21.1974 8.3641H21.1075L21.013 8.36721L20.9169 8.37186L20.8238 8.38116L20.7293 8.39046L20.6394 8.40131L20.551 8.41371L20.4658 8.42766L20.3898 8.44316L20.3201 8.45711L20.255 8.47571L20.2023 8.49276L20.162 8.51291L20.1294 8.52996L20.334 7.82469L20.3991 7.79833L20.4658 7.77508L20.534 7.75493L20.6037 7.74098L20.6766 7.72548L20.751 7.71463L20.8269 7.70223L20.906 7.69603L20.9882 7.68983L21.0719 7.68828L21.1571 7.68518H21.2486H21.3385H21.433L21.5322 7.68828L21.6314 7.68983L21.7136 7.69603L21.8019 7.71153L21.8918 7.73168L21.9864 7.75803L22.0763 7.79368L22.1678 7.83399L22.2546 7.88359L22.3367 7.93939L22.4096 8.00449L22.4778 8.07424L22.5367 8.1533L22.5801 8.2401L22.6126 8.33465L22.6328 8.43386V8.54546L22.6173 8.66172L22.3104 10.2087Z" fill="white"/>
<path fill-rule="evenodd" clip-rule="evenodd" d="M22.1905 10.8783L22.2075 10.8612L22.3269 10.2118L22.2928 10.2056L22.1719 10.855L22.1905 10.838V10.8783L22.2044 10.8752L22.2075 10.8612L22.1905 10.8783Z" fill="white"/>
<path fill-rule="evenodd" clip-rule="evenodd" d="M21.4367 10.8581L21.4553 10.8783H22.19V10.838H21.4553L21.4723 10.8581H21.4367L21.4336 10.8783H21.4553L21.4367 10.8581Z" fill="white"/>
<path fill-rule="evenodd" clip-rule="evenodd" d="M21.4856 10.5295L21.4592 10.5063L21.4468 10.5528L21.4437 10.6318V10.7372L21.4375 10.8581H21.4732L21.4794 10.7372L21.4856 10.6318L21.4825 10.5528V10.5295L21.4561 10.5063L21.4856 10.5295Z" fill="white"/>
<path fill-rule="evenodd" clip-rule="evenodd" d="M20.3457 10.9046L20.4279 10.917L20.5069 10.9248L20.5891 10.9217L20.6728 10.917L20.758 10.9046L20.8402 10.8907L20.9223 10.8674L21.0045 10.8426L21.0773 10.8147L21.1533 10.7791L21.223 10.7434L21.285 10.7031L21.347 10.6613L21.3997 10.621L21.4462 10.5745L21.485 10.5295L21.4555 10.5063L21.4168 10.5512L21.3765 10.5915L21.3238 10.6318L21.268 10.6737L21.206 10.7093L21.1362 10.7434L21.0649 10.7791L20.9921 10.8085L20.9161 10.8318L20.834 10.855L20.7518 10.869L20.6728 10.8814L20.5891 10.8876L20.5069 10.8907L20.4279 10.8814L20.3519 10.869L20.3457 10.9046Z" fill="white"/>
<path fill-rule="evenodd" clip-rule="evenodd" d="M19.6377 10.018L19.6408 10.0816L19.647 10.1467L19.6547 10.2164L19.6671 10.2846L19.6811 10.3482L19.7043 10.4164L19.7307 10.483L19.7694 10.545L19.8098 10.6055L19.8578 10.6613L19.9152 10.7171L19.9834 10.7636L20.0593 10.8116L20.1446 10.8488L20.2407 10.8783L20.3461 10.9046L20.3523 10.869L20.2469 10.8426L20.1554 10.8147L20.0764 10.776L20.0004 10.7357L19.9384 10.6876L19.8857 10.638L19.8392 10.5822L19.7989 10.5264L19.7663 10.466L19.74 10.404L19.7167 10.3435L19.7012 10.2784L19.6904 10.2118L19.6811 10.1467L19.6749 10.0816L19.678 10.018H19.6377Z" fill="white"/>
<path fill-rule="evenodd" clip-rule="evenodd" d="M20.6886 8.89423L20.5863 8.91128L20.4871 8.93763L20.3895 8.97018L20.2965 9.01048L20.205 9.05698L20.1182 9.11588L20.0392 9.17789L19.9617 9.24764L19.8919 9.32049L19.8299 9.40264L19.7726 9.491L19.7276 9.5871L19.6904 9.6863L19.664 9.79171L19.647 9.90331L19.6377 10.018H19.678L19.6811 9.90331L19.6997 9.79791L19.726 9.6987L19.7633 9.5995L19.8067 9.50805L19.8594 9.42589L19.9214 9.34374L19.9865 9.27089L20.0624 9.20734L20.1415 9.14533L20.2236 9.09263L20.3135 9.04613L20.4019 9.00428L20.498 8.97328L20.5925 8.94693L20.6886 8.92833V8.89423Z" fill="white"/>
<path fill-rule="evenodd" clip-rule="evenodd" d="M21.2915 8.83222H21.2589L21.2186 8.83842L21.1767 8.84152L21.1302 8.84462L21.0806 8.84927L21.031 8.85237L20.9783 8.85857L20.9287 8.86477L20.8822 8.87097L20.8373 8.87562L20.797 8.87872L20.7582 8.88492L20.7288 8.88802L20.7055 8.89112L20.6947 8.89422H20.6885V8.92832H20.6947L20.7117 8.92522L20.7288 8.92367L20.7582 8.92057L20.797 8.91437L20.8373 8.91127L20.8822 8.90507L20.9287 8.89887L20.9783 8.89422L21.031 8.88802L21.0806 8.88492L21.1302 8.87872L21.1767 8.87562L21.2186 8.87252H21.2589H21.2915V8.83222Z" fill="white"/>
<path fill-rule="evenodd" clip-rule="evenodd" d="M21.6863 8.86477L21.7033 8.84927H21.6925L21.6661 8.84617L21.6181 8.84462L21.5638 8.83842H21.4987H21.4321L21.3608 8.83222H21.291V8.87252H21.3608H21.4321L21.4987 8.87872H21.5638H21.6181L21.6661 8.88182L21.6925 8.88492H21.7033L21.7219 8.87097L21.7033 8.88492L21.7188 8.88802L21.7219 8.87097L21.6863 8.86477Z" fill="white"/>
<path fill-rule="evenodd" clip-rule="evenodd" d="M21.716 8.67722H21.7129L21.7098 8.73302L21.7005 8.79192L21.6927 8.84462L21.6865 8.86477L21.7222 8.87097L21.7268 8.84927L21.7361 8.79657L21.7454 8.73302L21.7532 8.67722H21.7501H21.716Z" fill="white"/>
<path fill-rule="evenodd" clip-rule="evenodd" d="M21.3682 8.38735V8.39045L21.4348 8.39355L21.4968 8.4106L21.5557 8.43696L21.6053 8.47261L21.6456 8.51291L21.6813 8.56251L21.7045 8.61521L21.7169 8.67722H21.751L21.7402 8.60901L21.7169 8.54546L21.6751 8.48966L21.6286 8.44316L21.5728 8.4013L21.5092 8.37495L21.441 8.3579L21.3682 8.3486V8.3517V8.38735Z" fill="white"/>
<path fill-rule="evenodd" clip-rule="evenodd" d="M20.1123 8.52841L20.1418 8.54546L20.1712 8.52996L20.2084 8.50981L20.258 8.49276L20.3231 8.47571L20.3929 8.46021L20.4688 8.44626L20.5541 8.43076L20.6393 8.41991L20.7292 8.40751L20.8238 8.39821L20.9168 8.39046L21.0129 8.38426H21.1074H21.1973H21.2857L21.3678 8.38736V8.35171L21.2857 8.34861L21.1973 8.34396H21.1074L21.0129 8.34861L20.9168 8.35481L20.8238 8.36411L20.7292 8.37186L20.6393 8.38426L20.5479 8.39666L20.4626 8.41061L20.3867 8.42456L20.3169 8.44006L20.2518 8.45711L20.1976 8.47571L20.1526 8.49586L20.1185 8.51601L20.1464 8.53306L20.1123 8.52841Z" fill="white"/>
<path fill-rule="evenodd" clip-rule="evenodd" d="M20.3293 7.80763L20.3169 7.82158L20.1123 8.52841L20.1464 8.53306L20.3526 7.82778L20.3402 7.84328L20.3293 7.80763L20.32 7.81073L20.3169 7.82158L20.3293 7.80763Z" fill="white"/>
<path fill-rule="evenodd" clip-rule="evenodd" d="M21.6312 7.67278L21.532 7.66658L21.4327 7.66348H21.3382H21.2483H21.1568L21.0716 7.66968L20.9879 7.67278L20.9057 7.67898L20.8267 7.68518L20.7476 7.69603L20.6732 7.70843L20.6004 7.72238L20.5306 7.73788L20.4609 7.75803L20.3927 7.78128L20.3291 7.80763L20.34 7.84328L20.4051 7.81693L20.4717 7.79368L20.5368 7.77198L20.6066 7.75803L20.6794 7.74253L20.7523 7.73168L20.8267 7.71928L20.9057 7.71463L20.9879 7.70843L21.0716 7.70533H21.1568H21.2483H21.3382H21.4327L21.532 7.70843H21.6312V7.67278Z" fill="white"/>
<path fill-rule="evenodd" clip-rule="evenodd" d="M22.6353 8.66481L22.6493 8.54546V8.43385L22.6291 8.33155L22.5965 8.23545L22.55 8.14399L22.4911 8.06184L22.4214 7.98899L22.3485 7.92543L22.2633 7.86963L22.1749 7.81693L22.0819 7.77508L21.9905 7.74098L21.8944 7.71463L21.8029 7.69293L21.713 7.67898L21.6309 7.67278V7.70843L21.713 7.71463L21.7983 7.72858L21.8882 7.74873L21.9796 7.77508L22.0695 7.81073L22.1579 7.85103L22.2462 7.89908L22.3253 7.95334L22.3981 8.01844L22.4617 8.08509L22.5206 8.16104L22.5624 8.2463L22.5934 8.33775L22.6151 8.43385V8.54546L22.5996 8.66016L22.6353 8.66481Z" fill="white"/>
<path fill-rule="evenodd" clip-rule="evenodd" d="M22.3271 10.2118L22.6355 8.66481L22.5999 8.66016L22.293 10.2056L22.3271 10.2118Z" fill="white"/>
<path fill-rule="evenodd" clip-rule="evenodd" d="M21.6013 9.44449L21.5951 9.42589L21.5842 9.41194L21.5641 9.40264L21.5346 9.39489L21.5021 9.39179L21.4633 9.38869H21.4199L21.3765 9.39179L21.33 9.39644L21.282 9.40264L21.2355 9.40884L21.1921 9.41504L21.1471 9.42279L21.1099 9.42899L21.0712 9.43829L21.0417 9.44449L21.0215 9.44759L20.9983 9.45534L20.9688 9.46464L20.9363 9.47549L20.8991 9.49409L20.8634 9.51114L20.8231 9.53129L20.7844 9.55764L20.7472 9.584L20.7084 9.61655L20.6759 9.6491L20.6449 9.6863L20.6185 9.72815L20.5968 9.77155L20.5798 9.81806L20.5705 9.86921L20.5674 9.96841L20.5829 10.0475L20.6061 10.1048L20.6418 10.1498L20.6852 10.1792L20.7348 10.1963L20.7844 10.2056L20.834 10.2087L20.9223 10.2056L21.0045 10.1963L21.0805 10.1823L21.1471 10.1606L21.2122 10.1374L21.268 10.111L21.3207 10.0816L21.3672 10.0475L21.4075 10.0149L21.4432 9.97616L21.4757 9.94206L21.5021 9.90331L21.5222 9.86921L21.5377 9.83356L21.5486 9.7979L21.5579 9.76535L21.5687 9.68475L21.5842 9.5995L21.5951 9.51734L21.6013 9.44449Z" fill="#FCB331"/>
<path fill-rule="evenodd" clip-rule="evenodd" d="M27.6328 10.4567L27.6375 10.39L27.6623 10.311L27.7026 10.2397L27.7522 10.1792L27.8142 10.1296L27.8839 10.094L27.9599 10.0707L28.042 10.0614L28.1242 10.0707L28.2001 10.094L28.2699 10.1296L28.3319 10.1792L28.3815 10.2397L28.4233 10.311L28.4466 10.39L28.4512 10.4567H28.3644L28.3613 10.404L28.3443 10.3404L28.3148 10.2815L28.2761 10.2319L28.2296 10.1901L28.1738 10.1606L28.1102 10.1405L28.042 10.1343L27.9754 10.1405L27.9103 10.1606L27.8545 10.1901L27.808 10.2319L27.7692 10.2815L27.7413 10.3404L27.7227 10.404L27.7165 10.4567H27.6328Z" fill="white"/>
<path fill-rule="evenodd" clip-rule="evenodd" d="M27.8965 10.4567V10.2815H28.0577L28.0918 10.2846L28.1243 10.2908L28.1476 10.2986L28.1677 10.311L28.1832 10.328L28.1941 10.3451L28.2003 10.3668L28.2034 10.3869L28.2003 10.4133L28.1941 10.4334L28.1863 10.4505L28.1801 10.4567H28.0577L28.0685 10.4536L28.0887 10.4505L28.1073 10.4458L28.1212 10.4396L28.1336 10.4303L28.1383 10.421L28.1445 10.4071V10.3869L28.1414 10.3714L28.1367 10.3606L28.1274 10.3544L28.1181 10.3482L28.1042 10.3451L28.0887 10.3435H28.0747H28.0577H27.9693V10.4567H27.8965Z" fill="white"/>
<path fill-rule="evenodd" clip-rule="evenodd" d="M27.633 10.4567L27.6299 10.4737L27.6376 10.559L27.6624 10.638L27.7027 10.7093L27.7523 10.7667L27.8143 10.8163L27.8841 10.855L27.96 10.8783L28.0422 10.8876L28.1244 10.8783L28.2003 10.855L28.2701 10.8163L28.3321 10.7667L28.3817 10.7093L28.4235 10.638L28.4468 10.559L28.4545 10.4737L28.4514 10.4567H28.3646L28.3677 10.4737L28.3615 10.545L28.3445 10.6086L28.315 10.6644L28.2763 10.714L28.2298 10.7558L28.174 10.7884L28.1104 10.8085L28.0422 10.8147L27.9755 10.8085L27.9104 10.7884L27.8546 10.7558L27.8081 10.714L27.7694 10.6644L27.7415 10.6086L27.7229 10.545L27.7167 10.4737V10.4567H27.633Z" fill="white"/>
<path fill-rule="evenodd" clip-rule="evenodd" d="M27.8965 10.4567V10.6349H27.9693V10.4892H28.0422L28.1305 10.6349H28.1894L28.1011 10.4892H28.1212L28.1414 10.483L28.16 10.4768L28.1739 10.466L28.1801 10.4567H28.0577L28.0422 10.4598H27.9693V10.4567H27.8965Z" fill="white"/>
<path d="M27.6299 10.4737L27.6392 10.3885L27.6624 10.3094L27.7027 10.2397L27.7523 10.1777L27.8143 10.1281L27.8841 10.0924L27.96 10.0692L28.0422 10.0599L28.1244 10.0692L28.2003 10.0924L28.2701 10.1281L28.3321 10.1777L28.3817 10.2397L28.422 10.3094L28.4452 10.3885L28.4545 10.4737L28.4452 10.559L28.422 10.638L28.3817 10.7078L28.3321 10.7667L28.2701 10.8163L28.2003 10.855L28.1244 10.8783L28.0422 10.8876L27.96 10.8783L27.8841 10.855L27.8143 10.8163L27.7523 10.7667L27.7027 10.7078L27.6624 10.638L27.6392 10.559L27.6299 10.4737ZM27.9693 10.6349H27.8965V10.28H28.0577L28.0934 10.2831L28.1259 10.2893L28.1492 10.2986L28.1693 10.311L28.1833 10.328L28.1957 10.3451L28.2019 10.3652L28.205 10.3854L28.2019 10.4117L28.1957 10.4319L28.1864 10.4489L28.174 10.4629L28.16 10.4753L28.143 10.4815L28.1228 10.4877H28.1027L28.191 10.6334H28.1321L28.0437 10.4877H27.9709V10.6349H27.9693ZM28.0422 10.4598L28.0685 10.4536L28.0887 10.4505L28.1058 10.4443L28.1197 10.4381L28.1321 10.4288L28.1383 10.4195L28.1445 10.4055V10.3854L28.1414 10.3714L28.1352 10.359L28.1259 10.3528L28.1166 10.3466L28.1027 10.3435L28.0887 10.3404H28.0747H28.0577H27.9693V10.4582H28.0422V10.4598ZM28.0422 10.8147L28.1089 10.8085L28.174 10.7884L28.2298 10.7558L28.2763 10.7155L28.315 10.6659L28.3445 10.6101L28.3615 10.545L28.3677 10.4753L28.3615 10.4055L28.3445 10.3404L28.315 10.2815L28.2763 10.2319L28.2298 10.1916L28.174 10.1622L28.1089 10.142L28.0422 10.1358L27.9755 10.142L27.9104 10.1622L27.8546 10.1916L27.8081 10.2319L27.7694 10.2815L27.7399 10.3404L27.7229 10.4055L27.7167 10.4753L27.7229 10.545L27.7399 10.6101L27.7694 10.6659L27.8081 10.7155L27.8546 10.7558L27.9104 10.7884L27.9755 10.8085L28.0422 10.8147Z" stroke="white" stroke-width="0.216" stroke-miterlimit="2.6131"/>
<path fill-rule="evenodd" clip-rule="evenodd" d="M22.5303 10.8581H23.3549L23.651 9.19183L23.6634 9.12828L23.6804 9.06318L23.6975 8.99963L23.7207 8.93452L23.7502 8.87097L23.7858 8.80897L23.8246 8.75007L23.8711 8.69426L23.9238 8.64466L23.9827 8.59816L24.0493 8.55476L24.1253 8.51911L24.2105 8.48966L24.3035 8.46641L24.4058 8.44935L24.5205 8.44315H24.5608H24.5856H24.5934L24.7251 7.68983L24.643 7.69603L24.5639 7.70533L24.4911 7.71928L24.4213 7.74098L24.3562 7.76423L24.2958 7.79368L24.2369 7.82468L24.1811 7.86033L24.1284 7.90063L24.0788 7.94249L24.0323 7.98899L23.9842 8.03549L23.9408 8.08509L23.8974 8.14089L23.8525 8.1936L23.8122 8.2525L23.9005 7.72238H23.0774L22.5303 10.8581Z" fill="white"/>
<path d="M22.5303 10.8581H23.3549L23.651 9.19183L23.6634 9.12828L23.6804 9.06318L23.6975 8.99963L23.7207 8.93452L23.7502 8.87097L23.7858 8.80897L23.8246 8.75007L23.8711 8.69426L23.9238 8.64466L23.9827 8.59816L24.0493 8.55476L24.1253 8.51911L24.2105 8.48966L24.3035 8.46641L24.4058 8.44935L24.5205 8.44315H24.5608H24.5856H24.5934L24.7251 7.68983L24.643 7.69603L24.5639 7.70533L24.4911 7.71928L24.4213 7.74098L24.3562 7.76423L24.2958 7.79368L24.2369 7.82468L24.1811 7.86033L24.1284 7.90063L24.0788 7.94249L24.0323 7.98899L23.9842 8.03549L23.9408 8.08509L23.8974 8.14089L23.8525 8.1936L23.8122 8.2525L23.9005 7.72238H23.0774L22.5303 10.8581Z" stroke="white" stroke-width="0.216" stroke-miterlimit="2.6131"/>
<path fill-rule="evenodd" clip-rule="evenodd" d="M14.7783 10.8581H15.603H15.6185L15.899 9.19183L15.9114 9.12828L15.9254 9.06628L15.9409 9.00428L15.961 8.94692L15.9843 8.88802L16.0137 8.83222L16.0478 8.77952L16.0897 8.72991L16.1362 8.68651L16.1889 8.64156L16.254 8.60746L16.3237 8.57491L16.4059 8.54856L16.4958 8.52531L16.5965 8.50981L16.7097 8.50206H16.719L16.7298 8.50361L16.7453 8.50671H16.7593L16.7748 8.50981L16.7857 8.51291L16.795 8.51601H16.7981L16.8012 8.50361L16.8089 8.46951L16.8213 8.4168L16.8353 8.3517L16.857 8.27575L16.8771 8.1936L16.9035 8.11144L16.9298 8.02929L16.9531 7.97504L16.9825 7.91924L17.012 7.86343L17.0414 7.81383L17.0678 7.76888L17.0879 7.73478L17.1019 7.71463L17.1081 7.70533H17.105L17.0941 7.70223L17.0786 7.69913L17.0585 7.69603H17.0383L17.0151 7.69293L16.9934 7.68983H16.9732L16.8833 7.69603L16.8012 7.70533L16.7252 7.71928L16.6539 7.73788L16.5872 7.76113L16.5252 7.79058L16.4694 7.82003L16.4167 7.85413L16.3671 7.89288L16.3206 7.93629L16.2772 7.97969L16.2323 8.02929L16.1889 8.08044L16.1486 8.13469L16.1036 8.1936L16.0602 8.2525L16.1656 7.72238H15.3255L14.7783 10.8581Z" fill="white"/>
<path d="M14.7783 10.8581H15.603H15.6185L15.899 9.19183L15.9114 9.12828L15.9254 9.06628L15.9409 9.00428L15.961 8.94692L15.9843 8.88802L16.0137 8.83222L16.0478 8.77952L16.0897 8.72991L16.1362 8.68651L16.1889 8.64156L16.254 8.60746L16.3237 8.57491L16.4059 8.54856L16.4958 8.52531L16.5965 8.50981L16.7097 8.50206H16.719L16.7298 8.50361L16.7453 8.50671H16.7593L16.7748 8.50981L16.7857 8.51291L16.795 8.51601H16.7981L16.8012 8.50361L16.8089 8.46951L16.8213 8.4168L16.8353 8.3517L16.857 8.27575L16.8771 8.1936L16.9035 8.11144L16.9298 8.02929L16.9531 7.97504L16.9825 7.91924L17.012 7.86343L17.0414 7.81383L17.0678 7.76888L17.0879 7.73478L17.1019 7.71463L17.1081 7.70533H17.105L17.0941 7.70223L17.0786 7.69913L17.0585 7.69603H17.0383L17.0151 7.69293L16.9934 7.68983H16.9732L16.8833 7.69603L16.8012 7.70533L16.7252 7.71928L16.6539 7.73788L16.5872 7.76113L16.5252 7.79058L16.4694 7.82003L16.4167 7.85413L16.3671 7.89288L16.3206 7.93629L16.2772 7.97969L16.2323 8.02929L16.1889 8.08044L16.1486 8.13469L16.1036 8.1936L16.0602 8.2525L16.1656 7.72238H15.3255L14.7783 10.8581Z" stroke="white" stroke-width="0.216" stroke-miterlimit="2.6131"/>
</g>
<defs>
<clipPath id="clip0_16_918">
<rect width="29" height="17.3575" fill="white"/>
</clipPath>
</defs>
</svg>
