<svg width="22" height="22" viewBox="0 0 22 22" fill="none" xmlns="http://www.w3.org/2000/svg">
<g clip-path="url(#clip0_16_915)">
<path d="M18.2809 5.05909C18.1468 4.98012 17.9818 4.97462 17.8428 5.04444C17.7039 5.11444 17.61 5.25009 17.5934 5.40469C17.5769 5.55504 17.5513 5.70534 17.5192 5.86304C16.6218 9.93579 14.8196 11.9167 12.0082 11.9167H7.88318C7.66567 11.9171 7.47841 12.0703 7.43493 12.2833L6.05993 18.7284L5.81428 20.3693C5.67304 21.1154 6.1634 21.8348 6.90951 21.9761C6.99179 21.9916 7.07528 21.9996 7.15903 22H9.91817C10.5506 22.002 11.102 21.5703 11.2519 20.9559L12.3666 16.5H14.7582C17.5806 16.5 19.5313 14.2496 20.2508 10.1631C20.7258 8.21725 19.94 6.18131 18.2809 5.05909Z" fill="#03A9F4"/>
<path d="M17.4173 1.63354C16.5116 0.606196 15.2118 0.0122833 13.8423 3.7194e-05H6.25231C5.11644 -0.00606436 4.14938 0.824993 3.98451 1.94884L1.62777 17.6706C1.51489 18.4215 2.0321 19.1218 2.78307 19.2347C2.85122 19.245 2.92009 19.2501 2.98902 19.25H6.50901C6.72652 19.2496 6.91377 19.0964 6.95726 18.8834L8.25435 12.8334H12.0127C15.2742 12.8334 17.4293 10.5536 18.4193 6.05003C18.4591 5.87051 18.4897 5.68909 18.5109 5.50643C18.7407 4.11704 18.3399 2.69748 17.4173 1.63354Z" fill="#283593"/>
</g>
<defs>
<clipPath id="clip0_16_915">
<rect width="22" height="22" fill="white"/>
</clipPath>
</defs>
</svg>
