<svg width="18" height="18" viewBox="0 0 18 18" fill="none" xmlns="http://www.w3.org/2000/svg">
<path d="M5.1875 11.1404L7.43225 8.22368L9.99275 10.2337L12.1895 7.39868" stroke="#727272" stroke-width="1.5" stroke-linecap="round" stroke-linejoin="round"/>
<path fill-rule="evenodd" clip-rule="evenodd" d="M14.7501 1.76245C15.5466 1.76245 16.1916 2.40745 16.1916 3.20395C16.1916 3.9997 15.5466 4.64545 14.7501 4.64545C13.9536 4.64545 13.3086 3.9997 13.3086 3.20395C13.3086 2.40745 13.9536 1.76245 14.7501 1.76245Z" stroke="#727272" stroke-width="1.5" stroke-linecap="round" stroke-linejoin="round"/>
<path d="M15.5664 6.95179C15.6662 7.62304 15.7119 8.37904 15.7119 9.22729C15.7119 14.4308 13.9779 16.1648 8.77441 16.1648C3.57166 16.1648 1.83691 14.4308 1.83691 9.22729C1.83691 4.02454 3.57166 2.28979 8.77441 2.28979C9.60691 2.28979 10.3502 2.33404 11.0117 2.43004" stroke="#727272" stroke-width="1.5" stroke-linecap="round" stroke-linejoin="round"/>
</svg>
