<svg width="14" height="18" viewBox="0 0 14 18" fill="none" xmlns="http://www.w3.org/2000/svg">
<path d="M6.99967 8.82998C9.26546 8.82998 11.1022 7.00257 11.1022 4.74835C11.1022 2.49413 9.26546 0.666718 6.99967 0.666718C4.73389 0.666718 2.89711 2.49413 2.89711 4.74835C2.89711 7.00257 4.73389 8.82998 6.99967 8.82998Z" fill="#D9D9D9"/>
<path d="M9.13643 10.5307H4.86292C2.38429 10.5307 0.333008 12.5716 0.333008 15.0375C0.333008 15.6328 0.589418 16.143 1.10224 16.3981C1.87147 16.8233 3.58087 17.3335 6.99967 17.3335C10.4185 17.3335 12.1279 16.8233 12.8971 16.3981C13.3245 16.143 13.6663 15.6328 13.6663 15.0375C13.6663 12.4865 11.6151 10.5307 9.13643 10.5307Z" fill="#D9D9D9"/>
</svg>
